<?xml version="1.0" standalone="no"?>
<!DOCTYPE svg PUBLIC "-//W3C//DTD SVG 20010904//EN"
 "http://www.w3.org/TR/2001/REC-SVG-20010904/DTD/svg10.dtd">
<svg version="1.0" xmlns="http://www.w3.org/2000/svg"
 width="260.000000pt" height="260.000000pt" viewBox="0 0 260.000000 260.000000"
 preserveAspectRatio="xMidYMid meet">
<metadata>
Created by potrace 1.14, written by Peter Selinger 2001-2017
</metadata>
<g transform="translate(0.000000,260.000000) scale(0.100000,-0.100000)"
fill="#000000" stroke="none">
<path d="M1187 2399 c-114 -12 -218 -43 -332 -99 -562 -276 -795 -1015 -510
-1617 82 -174 210 -331 354 -437 l64 -47 64 63 c165 162 326 365 389 491 149
294 30 471 -406 607 -253 78 -333 111 -382 158 -56 52 -24 106 100 170 132 69
388 142 495 142 26 0 16 -7 -52 -34 -117 -48 -165 -83 -169 -124 -3 -27 2 -35
30 -52 64 -39 207 -75 523 -130 163 -28 399 -93 504 -138 160 -70 250 -145
299 -251 33 -71 36 -185 7 -275 -55 -173 -202 -389 -409 -603 -55 -57 -96
-103 -92 -103 16 0 137 67 203 112 84 58 221 197 280 283 283 418 286 992 6
1413 -142 214 -368 379 -608 445 -55 15 -228 38 -265 35 -8 0 -50 -4 -93 -9z"/>
<path d="M690 1715 c-7 -8 -8 -15 -2 -15 5 0 15 7 22 15 7 8 8 15 2 15 -5 0
-15 -7 -22 -15z"/>
<path d="M735 1699 c-44 -39 -45 -69 -5 -102 59 -50 188 -88 488 -142 231 -42
280 -54 427 -102 234 -75 382 -168 436 -273 32 -62 32 -175 0 -280 -54 -177
-159 -334 -391 -586 -36 -39 -19 -25 37 32 201 203 327 387 384 560 31 92 33
241 5 297 -75 150 -341 266 -826 358 -338 64 -482 106 -534 154 -33 31 -33 55
0 89 37 36 22 33 -21 -5z"/>
<path d="M611 1664 c-12 -15 -21 -35 -21 -45 0 -25 10 -49 21 -49 6 0 5 8 -1
19 -15 28 -13 36 16 70 14 17 21 31 16 31 -6 0 -20 -12 -31 -26z"/>
<path d="M446 1618 c-61 -86 37 -148 349 -224 292 -70 443 -153 504 -276 36
-71 41 -146 16 -243 -32 -123 -151 -310 -317 -500 l-70 -80 74 76 c94 97 204
241 262 344 64 110 90 193 90 285 2 178 -118 291 -394 368 -58 17 -159 45
-225 62 -124 34 -236 78 -267 107 -20 18 -23 54 -8 84 14 26 5 24 -14 -3z"/>
<path d="M640 1560 c0 -5 7 -10 16 -10 8 0 12 5 9 10 -3 6 -10 10 -16 10 -5 0
-9 -4 -9 -10z"/>
<path d="M695 1541 c-6 -11 33 -26 43 -16 4 3 0 10 -8 15 -19 12 -27 12 -35 1z"/>
<path d="M780 1511 c0 -5 11 -11 25 -13 28 -6 34 6 9 16 -22 8 -34 7 -34 -3z"/>
<path d="M890 1480 c0 -5 11 -10 25 -10 14 0 25 5 25 10 0 6 -11 10 -25 10
-14 0 -25 -4 -25 -10z"/>
<path d="M1000 1455 c0 -9 44 -23 54 -18 4 3 2 9 -5 14 -15 10 -49 12 -49 4z"/>
<path d="M1130 1421 c0 -9 33 -21 60 -21 22 0 -1 16 -32 24 -16 3 -28 2 -28
-3z"/>
<path d="M1260 1382 c0 -5 16 -13 35 -19 40 -13 47 -2 10 15 -31 14 -45 15
-45 4z"/>
<path d="M1396 1331 c-5 -8 35 -31 54 -31 19 0 10 17 -15 28 -31 14 -32 14
-39 3z"/>
<path d="M1526 1271 c-8 -12 43 -53 56 -45 11 7 -7 31 -33 45 -11 5 -20 5 -23
0z"/>
<path d="M1630 1177 c0 -17 38 -53 46 -44 8 8 -23 57 -36 57 -6 0 -10 -6 -10
-13z"/>
<path d="M1698 1064 c-3 -3 -1 -21 5 -39 8 -26 13 -32 23 -24 9 7 9 17 1 39
-11 30 -18 35 -29 24z"/>
<path d="M1716 909 c-19 -61 -23 -99 -11 -99 16 0 38 91 25 104 -6 6 -11 4
-14 -5z"/>
<path d="M1601 637 c-44 -69 -48 -77 -28 -77 14 0 98 125 90 134 -13 13 -22 4
-62 -57z"/>
<path d="M1336 319 c-87 -92 -98 -109 -72 -109 18 0 187 181 180 192 -10 16
-24 6 -108 -83z"/>
</g>
</svg>
